<?xml version="1.0" encoding="UTF-8" standalone="no"?>
<!-- Created with Inkscape (http://www.inkscape.org/) -->

<svg
   xmlns:dc="http://purl.org/dc/elements/1.1/"
   xmlns:cc="http://creativecommons.org/ns#"
   xmlns:rdf="http://www.w3.org/1999/02/22-rdf-syntax-ns#"
   xmlns:svg="http://www.w3.org/2000/svg"
   xmlns="http://www.w3.org/2000/svg"
   xmlns:sodipodi="http://sodipodi.sourceforge.net/DTD/sodipodi-0.dtd"
   xmlns:inkscape="http://www.inkscape.org/namespaces/inkscape"
   width="600"
   height="600"
   id="svg3022"
   version="1.1"
   inkscape:version="0.48.5 r10040"
   sodipodi:docname="fence.svg">
  <defs
     id="defs3024" />
  <sodipodi:namedview
     id="base"
     pagecolor="#ffffff"
     bordercolor="#666666"
     borderopacity="1.0"
     inkscape:pageopacity="0.0"
     inkscape:pageshadow="2"
     inkscape:zoom="0.2"
     inkscape:cx="405.74009"
     inkscape:cy="293.64671"
     inkscape:document-units="px"
     inkscape:current-layer="layer2"
     showgrid="false"
     inkscape:window-width="1280"
     inkscape:window-height="702"
     inkscape:window-x="0"
     inkscape:window-y="0"
     inkscape:window-maximized="1" />
  <metadata
     id="metadata3027">
    <rdf:RDF>
      <cc:Work
         rdf:about="">
        <dc:format>image/svg+xml</dc:format>
        <dc:type
           rdf:resource="http://purl.org/dc/dcmitype/StillImage" />
        <dc:title></dc:title>
      </cc:Work>
    </rdf:RDF>
  </metadata>
  <g
     inkscape:groupmode="layer"
     id="layer2"
     inkscape:label="grass"
     style="display:none">
    <path
       sodipodi:type="arc"
       style="fill:#2ca736;fill-opacity:1;fill-rule:evenodd;stroke:none"
       id="path3919"
       sodipodi:cx="378.33334"
       sodipodi:cy="406.66666"
       sodipodi:rx="378.33334"
       sodipodi:ry="406.66666"
       d="m 756.66669,406.66666 a 378.33334,406.66666 0 1 1 -756.66669,0 378.33334,406.66666 0 1 1 756.66669,0 z"
       transform="matrix(1,0,0,0.88114754,-90.988096,-33.511905)" />
  </g>
  <g
     inkscape:groupmode="layer"
     id="layer3"
     inkscape:label="shadow">
    <g
       id="g4088"
       style="opacity:0.29999999999999999;fill:#000000;fill-opacity:1"
       transform="translate(7.5,-456.11218)">
      <rect
         style="fill:#000000;fill-opacity:1;fill-rule:evenodd;stroke:none"
         id="rect4012"
         width="211.25"
         height="10"
         x="72.5"
         y="80"
         transform="translate(0,452.36218)" />
      <rect
         y="532.36218"
         x="72.5"
         height="10"
         width="211.25"
         id="rect4014"
         style="fill:#000000;fill-opacity:1;fill-rule:evenodd;stroke:none" />
      <rect
         style="fill:#000000;fill-opacity:1;fill-rule:evenodd;stroke:none"
         id="rect4016"
         width="211.25"
         height="10"
         x="72.5"
         y="571.11218" />
      <rect
         y="569.86218"
         x="280"
         height="10"
         width="211.25"
         id="rect4018"
         style="fill:#000000;fill-opacity:1;fill-rule:evenodd;stroke:none" />
      <rect
         style="fill:#000000;fill-opacity:1;fill-rule:evenodd;stroke:none"
         id="rect4020"
         width="211.25"
         height="10"
         x="278.75"
         y="532.36218" />
      <rect
         y="902.36218"
         x="68.75"
         height="10"
         width="211.25"
         id="rect4022"
         style="fill:#000000;fill-opacity:1;fill-rule:evenodd;stroke:none" />
      <rect
         style="fill:#000000;fill-opacity:1;fill-rule:evenodd;stroke:none"
         id="rect4024"
         width="211.25"
         height="10"
         x="72.5"
         y="948.61218" />
      <path
         style="fill:#000000;fill-opacity:1;fill-rule:evenodd;stroke:none"
         d="m 69.375,44 c -4.832492,0 -8.75,28.262025 -8.75,63.125 0,10.16837 0.345478,19.74216 0.9375,28.25 l 0,34.625 7.03125,0 c 0.255423,0.16177 0.520004,0.25 0.78125,0.25 0.261246,0 0.525827,-0.0882 0.78125,-0.25 L 78,170 78,117.34375 C 78.07535,114.01113 78.125,110.6113 78.125,107.125 78.125,72.262025 74.207492,44 69.375,44 z"
         transform="translate(0,452.36218)"
         id="path4026"
         inkscape:connector-curvature="0" />
      <path
         style="fill:#000000;fill-opacity:1;fill-rule:evenodd;stroke:none"
         d="m 281.6875,44 c -4.83249,0 -8.75,28.262025 -8.75,63.125 0,8.23284 0.22761,16.06988 0.625,23.28125 l 0,39.59375 7.34375,0 c 0.25542,0.16177 0.52,0.25 0.78125,0.25 0.26125,0 0.52583,-0.0882 0.78125,-0.25 l 7.53125,0 0,-43.4375 c 0.27456,-6.12461 0.4375,-12.65337 0.4375,-19.4375 0,-34.862975 -3.91751,-63.125 -8.75,-63.125 z"
         transform="translate(0,452.36218)"
         id="path4028"
         inkscape:connector-curvature="0" />
      <path
         style="fill:#000000;fill-opacity:1;fill-rule:evenodd;stroke:none"
         d="m 494,44 c -4.83249,0 -8.75,28.262025 -8.75,63.125 0,5.60458 0.12249,11.0141 0.3125,16.1875 l 0,46.6875 7.65625,0 c 0.25542,0.16177 0.52,0.25 0.78125,0.25 0.26125,0 0.52583,-0.0882 0.78125,-0.25 l 7.21875,0 0,-37.375 c 0.47893,-7.80518 0.75,-16.41497 0.75,-25.5 C 502.75,72.262025 498.83249,44 494,44 z"
         transform="translate(0,452.36218)"
         id="path4030"
         inkscape:connector-curvature="0" />
      <g
         id="g4032"
         transform="translate(0,10)"
         style="fill:#000000;fill-opacity:1">
        <rect
           style="fill:#000000;fill-opacity:1;fill-rule:evenodd;stroke:none"
           id="rect4034"
           width="211.25"
           height="10"
           x="530.48718"
           y="-74.375"
           transform="matrix(0,1,-1,0,0,0)" />
        <path
           transform="matrix(0.64705884,0,0,0.76190476,29.235286,345.25332)"
           d="m 67.857142,244.64285 c 0,4.14214 -2.718271,7.5 -6.071429,7.5 -3.353157,0 -6.071429,-3.35786 -6.071429,-7.5 0,-4.14213 2.718272,-7.5 6.071429,-7.5 3.353158,0 6.071429,3.35787 6.071429,7.5 z"
           sodipodi:ry="7.5"
           sodipodi:rx="6.0714288"
           sodipodi:cy="244.64285"
           sodipodi:cx="61.785713"
           id="path4036"
           style="fill:#000000;fill-opacity:1;fill-rule:evenodd;stroke:none"
           sodipodi:type="arc" />
      </g>
      <path
         transform="matrix(0.64705884,0,0,0.76190476,454.23529,532.39618)"
         d="m 67.857142,244.64285 c 0,4.14214 -2.718271,7.5 -6.071429,7.5 -3.353157,0 -6.071429,-3.35786 -6.071429,-7.5 0,-4.14213 2.718272,-7.5 6.071429,-7.5 3.353158,0 6.071429,3.35787 6.071429,7.5 z"
         sodipodi:ry="7.5"
         sodipodi:rx="6.0714288"
         sodipodi:cy="244.64285"
         sodipodi:cx="61.785713"
         id="path4038"
         style="fill:#000000;fill-opacity:1;fill-rule:evenodd;stroke:none"
         sodipodi:type="arc" />
      <g
         id="g4040"
         style="fill:#000000;fill-opacity:1">
        <path
           transform="matrix(0.58333333,0,0,0.8015873,236.47917,802.8483)"
           d="m 92.5,166.25 c 0,43.49242 -6.715729,78.75 -15,78.75 -8.284271,0 -15,-35.25758 -15,-78.75 0,-43.49242 6.715729,-78.75 15,-78.75 8.284271,0 15,35.25758 15,78.75 z"
           sodipodi:ry="78.75"
           sodipodi:rx="15"
           sodipodi:cy="166.25"
           sodipodi:cx="77.5"
           id="path4042"
           style="fill:#000000;fill-opacity:1;fill-rule:evenodd;stroke:none"
           sodipodi:type="arc" />
        <rect
           style="fill:#000000;fill-opacity:1;fill-rule:evenodd;stroke:none"
           id="rect4044"
           width="16.428572"
           height="55"
           x="273.57144"
           y="945.36218" />
      </g>
      <g
         transform="translate(424.9,10)"
         id="g4046"
         style="fill:#000000;fill-opacity:1">
        <rect
           transform="matrix(0,1,-1,0,0,0)"
           y="-74.375"
           x="530.48718"
           height="10"
           width="211.25"
           id="rect4048"
           style="fill:#000000;fill-opacity:1;fill-rule:evenodd;stroke:none" />
        <path
           sodipodi:type="arc"
           style="fill:#000000;fill-opacity:1;fill-rule:evenodd;stroke:none"
           id="path4050"
           sodipodi:cx="61.785713"
           sodipodi:cy="244.64285"
           sodipodi:rx="6.0714288"
           sodipodi:ry="7.5"
           d="m 67.857142,244.64285 c 0,4.14214 -2.718271,7.5 -6.071429,7.5 -3.353157,0 -6.071429,-3.35786 -6.071429,-7.5 0,-4.14213 2.718272,-7.5 6.071429,-7.5 3.353158,0 6.071429,3.35787 6.071429,7.5 z"
           transform="matrix(0.64705884,0,0,0.76190476,29.235286,345.25332)" />
      </g>
      <g
         id="g4052"
         transform="translate(0,-188.59375)"
         style="fill:#000000;fill-opacity:1">
        <path
           transform="matrix(0.58333333,0,0,0.8015873,448.79167,802.8483)"
           d="m 92.5,166.25 c 0,43.49242 -6.715729,78.75 -15,78.75 -8.284271,0 -15,-35.25758 -15,-78.75 0,-43.49242 6.715729,-78.75 15,-78.75 8.284271,0 15,35.25758 15,78.75 z"
           sodipodi:ry="78.75"
           sodipodi:rx="15"
           sodipodi:cy="166.25"
           sodipodi:cx="77.5"
           id="path4054"
           style="fill:#000000;fill-opacity:1;fill-rule:evenodd;stroke:none"
           sodipodi:type="arc" />
        <rect
           style="fill:#000000;fill-opacity:1;fill-rule:evenodd;stroke:none"
           id="rect4056"
           width="16.428572"
           height="55"
           x="485.57144"
           y="945.36218" />
      </g>
      <g
         transform="translate(-425.8,-188.59375)"
         id="g4058"
         style="fill:#000000;fill-opacity:1">
        <path
           sodipodi:type="arc"
           style="fill:#000000;fill-opacity:1;fill-rule:evenodd;stroke:none"
           id="path4060"
           sodipodi:cx="77.5"
           sodipodi:cy="166.25"
           sodipodi:rx="15"
           sodipodi:ry="78.75"
           d="m 92.5,166.25 c 0,43.49242 -6.715729,78.75 -15,78.75 -8.284271,0 -15,-35.25758 -15,-78.75 0,-43.49242 6.715729,-78.75 15,-78.75 8.284271,0 15,35.25758 15,78.75 z"
           transform="matrix(0.58333333,0,0,0.8015873,448.79167,802.8483)" />
        <rect
           y="945.36218"
           x="485.57144"
           height="55"
           width="16.428572"
           id="rect4062"
           style="fill:#000000;fill-opacity:1;fill-rule:evenodd;stroke:none" />
      </g>
      <g
         transform="translate(0,202)"
         id="g4064"
         style="fill:#000000;fill-opacity:1">
        <rect
           transform="matrix(0,1,-1,0,0,0)"
           y="-74.375"
           x="530.48718"
           height="10"
           width="211.25"
           id="rect4066"
           style="fill:#000000;fill-opacity:1;fill-rule:evenodd;stroke:none" />
        <path
           sodipodi:type="arc"
           style="fill:#000000;fill-opacity:1;fill-rule:evenodd;stroke:none"
           id="path4068"
           sodipodi:cx="61.785713"
           sodipodi:cy="244.64285"
           sodipodi:rx="6.0714288"
           sodipodi:ry="7.5"
           d="m 67.857142,244.64285 c 0,4.14214 -2.718271,7.5 -6.071429,7.5 -3.353157,0 -6.071429,-3.35786 -6.071429,-7.5 0,-4.14213 2.718272,-7.5 6.071429,-7.5 3.353158,0 6.071429,3.35787 6.071429,7.5 z"
           transform="matrix(0.64705884,0,0,0.76190476,29.235286,345.25332)" />
      </g>
      <g
         id="g4070"
         style="fill:#000000;fill-opacity:1">
        <path
           transform="matrix(0.58333333,0,0,0.8015873,24.166671,802.8483)"
           d="m 92.5,166.25 c 0,43.49242 -6.715729,78.75 -15,78.75 -8.284271,0 -15,-35.25758 -15,-78.75 0,-43.49242 6.715729,-78.75 15,-78.75 8.284271,0 15,35.25758 15,78.75 z"
           sodipodi:ry="78.75"
           sodipodi:rx="15"
           sodipodi:cy="166.25"
           sodipodi:cx="77.5"
           id="path4072"
           style="fill:#000000;fill-opacity:1;fill-rule:evenodd;stroke:none"
           sodipodi:type="arc" />
        <rect
           y="945.36218"
           x="60.857155"
           height="55"
           width="16.428572"
           id="rect4074"
           style="fill:#000000;fill-opacity:1;fill-rule:evenodd;stroke:none" />
      </g>
      <g
         id="g4076"
         transform="translate(424,202)"
         style="fill:#000000;fill-opacity:1">
        <rect
           style="fill:#000000;fill-opacity:1;fill-rule:evenodd;stroke:none"
           id="rect4078"
           width="211.25"
           height="10"
           x="530.48718"
           y="-74.375"
           transform="matrix(0,1,-1,0,0,0)" />
        <path
           transform="matrix(0.64705884,0,0,0.76190476,29.235286,345.25332)"
           d="m 67.857142,244.64285 c 0,4.14214 -2.718271,7.5 -6.071429,7.5 -3.353157,0 -6.071429,-3.35786 -6.071429,-7.5 0,-4.14213 2.718272,-7.5 6.071429,-7.5 3.353158,0 6.071429,3.35787 6.071429,7.5 z"
           sodipodi:ry="7.5"
           sodipodi:rx="6.0714288"
           sodipodi:cy="244.64285"
           sodipodi:cx="61.785713"
           id="path4080"
           style="fill:#000000;fill-opacity:1;fill-rule:evenodd;stroke:none"
           sodipodi:type="arc" />
      </g>
      <g
         id="g4082"
         style="fill:#000000;fill-opacity:1">
        <path
           sodipodi:type="arc"
           style="fill:#000000;fill-opacity:1;fill-rule:evenodd;stroke:none"
           id="path4084"
           sodipodi:cx="77.5"
           sodipodi:cy="166.25"
           sodipodi:rx="15"
           sodipodi:ry="78.75"
           d="m 92.5,166.25 c 0,43.49242 -6.715729,78.75 -15,78.75 -8.284271,0 -15,-35.25758 -15,-78.75 0,-43.49242 6.715729,-78.75 15,-78.75 8.284271,0 15,35.25758 15,78.75 z"
           transform="matrix(0.58333333,0,0,0.8015873,448.79167,802.8483)" />
        <rect
           y="945.36218"
           x="485.57144"
           height="55"
           width="16.428572"
           id="rect4086"
           style="fill:#000000;fill-opacity:1;fill-rule:evenodd;stroke:none" />
      </g>
    </g>
  </g>
  <g
     inkscape:label="Layer 1"
     inkscape:groupmode="layer"
     id="layer1"
     transform="translate(0,-452.36218)">
    <rect
       style="fill:#825201;fill-opacity:1;fill-rule:evenodd;stroke:none"
       id="rect3810"
       width="211.25"
       height="10"
       x="72.5"
       y="80"
       transform="translate(0,452.36218)" />
    <rect
       y="532.36218"
       x="72.5"
       height="10"
       width="211.25"
       id="rect3812"
       style="fill:#825201;fill-opacity:1;fill-rule:evenodd;stroke:none" />
    <rect
       style="fill:#825201;fill-opacity:1;fill-rule:evenodd;stroke:none"
       id="rect3816"
       width="211.25"
       height="10"
       x="72.5"
       y="571.11218" />
    <rect
       y="569.86218"
       x="280"
       height="10"
       width="211.25"
       id="rect3818"
       style="fill:#825201;fill-opacity:1;fill-rule:evenodd;stroke:none" />
    <rect
       style="fill:#825201;fill-opacity:1;fill-rule:evenodd;stroke:none"
       id="rect3820"
       width="211.25"
       height="10"
       x="278.75"
       y="532.36218" />
    <rect
       y="902.36218"
       x="68.75"
       height="10"
       width="211.25"
       id="rect3822"
       style="fill:#825201;fill-opacity:1;fill-rule:evenodd;stroke:none" />
    <rect
       style="fill:#825201;fill-opacity:1;fill-rule:evenodd;stroke:none"
       id="rect3824"
       width="211.25"
       height="10"
       x="72.5"
       y="948.61218" />
    <path
       style="fill:#764f0d;fill-opacity:1;fill-rule:evenodd;stroke:none"
       d="m 69.375,44 c -4.832492,0 -8.75,28.262025 -8.75,63.125 0,10.16837 0.345478,19.74216 0.9375,28.25 l 0,34.625 7.03125,0 c 0.255423,0.16177 0.520004,0.25 0.78125,0.25 0.261246,0 0.525827,-0.0882 0.78125,-0.25 L 78,170 78,117.34375 C 78.07535,114.01113 78.125,110.6113 78.125,107.125 78.125,72.262025 74.207492,44 69.375,44 z"
       transform="translate(0,452.36218)"
       id="path3030"
       inkscape:connector-curvature="0" />
    <path
       style="fill:#764f0d;fill-opacity:1;fill-rule:evenodd;stroke:none"
       d="m 281.6875,44 c -4.83249,0 -8.75,28.262025 -8.75,63.125 0,8.23284 0.22761,16.06988 0.625,23.28125 l 0,39.59375 7.34375,0 c 0.25542,0.16177 0.52,0.25 0.78125,0.25 0.26125,0 0.52583,-0.0882 0.78125,-0.25 l 7.53125,0 0,-43.4375 c 0.27456,-6.12461 0.4375,-12.65337 0.4375,-19.4375 0,-34.862975 -3.91751,-63.125 -8.75,-63.125 z"
       transform="translate(0,452.36218)"
       id="path3800"
       inkscape:connector-curvature="0" />
    <path
       style="fill:#764f0d;fill-opacity:1;fill-rule:evenodd;stroke:none"
       d="m 494,44 c -4.83249,0 -8.75,28.262025 -8.75,63.125 0,5.60458 0.12249,11.0141 0.3125,16.1875 l 0,46.6875 7.65625,0 c 0.25542,0.16177 0.52,0.25 0.78125,0.25 0.26125,0 0.52583,-0.0882 0.78125,-0.25 l 7.21875,0 0,-37.375 c 0.47893,-7.80518 0.75,-16.41497 0.75,-25.5 C 502.75,72.262025 498.83249,44 494,44 z"
       transform="translate(0,452.36218)"
       id="path3802"
       inkscape:connector-curvature="0" />
    <g
       id="g3978"
       transform="translate(0,10)">
      <rect
         style="fill:#825201;fill-opacity:1;fill-rule:evenodd;stroke:none"
         id="rect3832"
         width="211.25"
         height="10"
         x="530.48718"
         y="-74.375"
         transform="matrix(0,1,-1,0,0,0)" />
      <path
         transform="matrix(0.64705884,0,0,0.76190476,29.235286,345.25332)"
         d="m 67.857142,244.64285 c 0,4.14214 -2.718271,7.5 -6.071429,7.5 -3.353157,0 -6.071429,-3.35786 -6.071429,-7.5 0,-4.14213 2.718272,-7.5 6.071429,-7.5 3.353158,0 6.071429,3.35787 6.071429,7.5 z"
         sodipodi:ry="7.5"
         sodipodi:rx="6.0714288"
         sodipodi:cy="244.64285"
         sodipodi:cx="61.785713"
         id="path3931"
         style="fill:#835200;fill-opacity:1;fill-rule:evenodd;stroke:none"
         sodipodi:type="arc" />
    </g>
    <path
       transform="matrix(0.64705884,0,0,0.76190476,454.23529,532.39618)"
       d="m 67.857142,244.64285 c 0,4.14214 -2.718271,7.5 -6.071429,7.5 -3.353157,0 -6.071429,-3.35786 -6.071429,-7.5 0,-4.14213 2.718272,-7.5 6.071429,-7.5 3.353158,0 6.071429,3.35787 6.071429,7.5 z"
       sodipodi:ry="7.5"
       sodipodi:rx="6.0714288"
       sodipodi:cy="244.64285"
       sodipodi:cx="61.785713"
       id="path3925"
       style="fill:#835200;fill-opacity:1;fill-rule:evenodd;stroke:none"
       sodipodi:type="arc" />
    <g
       id="g3953">
      <path
         transform="matrix(0.58333333,0,0,0.8015873,236.47917,802.8483)"
         d="m 92.5,166.25 c 0,43.49242 -6.715729,78.75 -15,78.75 -8.284271,0 -15,-35.25758 -15,-78.75 0,-43.49242 6.715729,-78.75 15,-78.75 8.284271,0 15,35.25758 15,78.75 z"
         sodipodi:ry="78.75"
         sodipodi:rx="15"
         sodipodi:cy="166.25"
         sodipodi:cx="77.5"
         id="path3842"
         style="fill:#764f0d;fill-opacity:1;fill-rule:evenodd;stroke:none"
         sodipodi:type="arc" />
      <rect
         style="fill:#764f0d;fill-opacity:1;fill-rule:evenodd;stroke:none"
         id="rect3939"
         width="16.428572"
         height="55"
         x="273.57144"
         y="945.36218" />
    </g>
    <g
       transform="translate(424.9,10)"
       id="g3982">
      <rect
         transform="matrix(0,1,-1,0,0,0)"
         y="-74.375"
         x="530.48718"
         height="10"
         width="211.25"
         id="rect3984"
         style="fill:#825201;fill-opacity:1;fill-rule:evenodd;stroke:none" />
      <path
         sodipodi:type="arc"
         style="fill:#835200;fill-opacity:1;fill-rule:evenodd;stroke:none"
         id="path3986"
         sodipodi:cx="61.785713"
         sodipodi:cy="244.64285"
         sodipodi:rx="6.0714288"
         sodipodi:ry="7.5"
         d="m 67.857142,244.64285 c 0,4.14214 -2.718271,7.5 -6.071429,7.5 -3.353157,0 -6.071429,-3.35786 -6.071429,-7.5 0,-4.14213 2.718272,-7.5 6.071429,-7.5 3.353158,0 6.071429,3.35787 6.071429,7.5 z"
         transform="matrix(0.64705884,0,0,0.76190476,29.235286,345.25332)" />
    </g>
    <g
       id="g3988"
       transform="translate(0,-188.59375)">
      <path
         transform="matrix(0.58333333,0,0,0.8015873,448.79167,802.8483)"
         d="m 92.5,166.25 c 0,43.49242 -6.715729,78.75 -15,78.75 -8.284271,0 -15,-35.25758 -15,-78.75 0,-43.49242 6.715729,-78.75 15,-78.75 8.284271,0 15,35.25758 15,78.75 z"
         sodipodi:ry="78.75"
         sodipodi:rx="15"
         sodipodi:cy="166.25"
         sodipodi:cx="77.5"
         id="path3990"
         style="fill:#764f0d;fill-opacity:1;fill-rule:evenodd;stroke:none"
         sodipodi:type="arc" />
      <rect
         style="fill:#764f0d;fill-opacity:1;fill-rule:evenodd;stroke:none"
         id="rect3992"
         width="16.428572"
         height="55"
         x="485.57144"
         y="945.36218" />
    </g>
    <g
       transform="translate(-425.8,-188.59375)"
       id="g3994">
      <path
         sodipodi:type="arc"
         style="fill:#764f0d;fill-opacity:1;fill-rule:evenodd;stroke:none"
         id="path3996"
         sodipodi:cx="77.5"
         sodipodi:cy="166.25"
         sodipodi:rx="15"
         sodipodi:ry="78.75"
         d="m 92.5,166.25 c 0,43.49242 -6.715729,78.75 -15,78.75 -8.284271,0 -15,-35.25758 -15,-78.75 0,-43.49242 6.715729,-78.75 15,-78.75 8.284271,0 15,35.25758 15,78.75 z"
         transform="matrix(0.58333333,0,0,0.8015873,448.79167,802.8483)" />
      <rect
         y="945.36218"
         x="485.57144"
         height="55"
         width="16.428572"
         id="rect3998"
         style="fill:#764f0d;fill-opacity:1;fill-rule:evenodd;stroke:none" />
    </g>
    <g
       transform="translate(0,202)"
       id="g4000">
      <rect
         transform="matrix(0,1,-1,0,0,0)"
         y="-74.375"
         x="530.48718"
         height="10"
         width="211.25"
         id="rect4002"
         style="fill:#825201;fill-opacity:1;fill-rule:evenodd;stroke:none" />
      <path
         sodipodi:type="arc"
         style="fill:#835200;fill-opacity:1;fill-rule:evenodd;stroke:none"
         id="path4004"
         sodipodi:cx="61.785713"
         sodipodi:cy="244.64285"
         sodipodi:rx="6.0714288"
         sodipodi:ry="7.5"
         d="m 67.857142,244.64285 c 0,4.14214 -2.718271,7.5 -6.071429,7.5 -3.353157,0 -6.071429,-3.35786 -6.071429,-7.5 0,-4.14213 2.718272,-7.5 6.071429,-7.5 3.353158,0 6.071429,3.35787 6.071429,7.5 z"
         transform="matrix(0.64705884,0,0,0.76190476,29.235286,345.25332)" />
    </g>
    <g
       id="g3949">
      <path
         transform="matrix(0.58333333,0,0,0.8015873,24.166671,802.8483)"
         d="m 92.5,166.25 c 0,43.49242 -6.715729,78.75 -15,78.75 -8.284271,0 -15,-35.25758 -15,-78.75 0,-43.49242 6.715729,-78.75 15,-78.75 8.284271,0 15,35.25758 15,78.75 z"
         sodipodi:ry="78.75"
         sodipodi:rx="15"
         sodipodi:cy="166.25"
         sodipodi:cx="77.5"
         id="path3804"
         style="fill:#754f0d;fill-opacity:1;fill-rule:evenodd;stroke:none"
         sodipodi:type="arc" />
      <rect
         y="945.36218"
         x="60.857155"
         height="55"
         width="16.428572"
         id="rect3941"
         style="fill:#764f0d;fill-opacity:1;fill-rule:evenodd;stroke:none" />
    </g>
    <g
       id="g4006"
       transform="translate(424,202)">
      <rect
         style="fill:#825201;fill-opacity:1;fill-rule:evenodd;stroke:none"
         id="rect4008"
         width="211.25"
         height="10"
         x="530.48718"
         y="-74.375"
         transform="matrix(0,1,-1,0,0,0)" />
      <path
         transform="matrix(0.64705884,0,0,0.76190476,29.235286,345.25332)"
         d="m 67.857142,244.64285 c 0,4.14214 -2.718271,7.5 -6.071429,7.5 -3.353157,0 -6.071429,-3.35786 -6.071429,-7.5 0,-4.14213 2.718272,-7.5 6.071429,-7.5 3.353158,0 6.071429,3.35787 6.071429,7.5 z"
         sodipodi:ry="7.5"
         sodipodi:rx="6.0714288"
         sodipodi:cy="244.64285"
         sodipodi:cx="61.785713"
         id="path4010"
         style="fill:#835200;fill-opacity:1;fill-rule:evenodd;stroke:none"
         sodipodi:type="arc" />
    </g>
    <g
       id="g3957">
      <path
         sodipodi:type="arc"
         style="fill:#764f0d;fill-opacity:1;fill-rule:evenodd;stroke:none"
         id="path3806"
         sodipodi:cx="77.5"
         sodipodi:cy="166.25"
         sodipodi:rx="15"
         sodipodi:ry="78.75"
         d="m 92.5,166.25 c 0,43.49242 -6.715729,78.75 -15,78.75 -8.284271,0 -15,-35.25758 -15,-78.75 0,-43.49242 6.715729,-78.75 15,-78.75 8.284271,0 15,35.25758 15,78.75 z"
         transform="matrix(0.58333333,0,0,0.8015873,448.79167,802.8483)" />
      <rect
         y="945.36218"
         x="485.57144"
         height="55"
         width="16.428572"
         id="rect3943"
         style="fill:#764f0d;fill-opacity:1;fill-rule:evenodd;stroke:none" />
    </g>
  </g>
</svg>
