<?xml version="1.0" encoding="UTF-8" standalone="no"?>
<!-- Created with Inkscape (http://www.inkscape.org/) -->

<svg
   xmlns:dc="http://purl.org/dc/elements/1.1/"
   xmlns:cc="http://creativecommons.org/ns#"
   xmlns:rdf="http://www.w3.org/1999/02/22-rdf-syntax-ns#"
   xmlns:svg="http://www.w3.org/2000/svg"
   xmlns="http://www.w3.org/2000/svg"
   xmlns:sodipodi="http://sodipodi.sourceforge.net/DTD/sodipodi-0.dtd"
   xmlns:inkscape="http://www.inkscape.org/namespaces/inkscape"
   width="744.09448"
   height="150"
   id="svg3811"
   version="1.1"
   inkscape:version="0.48.5 r10040"
   sodipodi:docname="river.svg">
  <defs
     id="defs3813">
    <inkscape:path-effect
       effect="skeletal"
       id="path-effect4431"
       is_visible="true"
       pattern="M 0,0 1,0"
       copytype="single_stretched"
       prop_scale="1"
       scale_y_rel="false"
       spacing="0"
       normal_offset="0"
       tang_offset="0"
       prop_units="false"
       vertical_pattern="false"
       fuse_tolerance="0" />
    <inkscape:path-effect
       is_visible="true"
       id="path-effect4411"
       effect="spiro" />
    <inkscape:path-effect
       effect="spiro"
       id="path-effect3899"
       is_visible="true" />
    <inkscape:path-effect
       effect="spiro"
       id="path-effect3835"
       is_visible="true" />
  </defs>
  <sodipodi:namedview
     id="base"
     pagecolor="#ffffff"
     bordercolor="#666666"
     borderopacity="1.0"
     inkscape:pageopacity="0.0"
     inkscape:pageshadow="2"
     inkscape:zoom="0.8"
     inkscape:cx="335.28571"
     inkscape:cy="88.810485"
     inkscape:document-units="px"
     inkscape:current-layer="layer1"
     showgrid="false"
     inkscape:window-width="1088"
     inkscape:window-height="651"
     inkscape:window-x="20"
     inkscape:window-y="20"
     inkscape:window-maximized="0" />
  <metadata
     id="metadata3816">
    <rdf:RDF>
      <cc:Work
         rdf:about="">
        <dc:format>image/svg+xml</dc:format>
        <dc:type
           rdf:resource="http://purl.org/dc/dcmitype/StillImage" />
        <dc:title></dc:title>
      </cc:Work>
    </rdf:RDF>
  </metadata>
  <g
     inkscape:label="water"
     inkscape:groupmode="layer"
     id="layer1"
     transform="translate(0,-902.36218)"
     style="display:inline">
    <path
       style="fill:none;stroke:#000000;stroke-width:1px;stroke-linecap:butt;stroke-linejoin:miter;stroke-opacity:1"
       d="m 2.8571429,363.79075 0,0"
       id="path3833"
       inkscape:path-effect="#path-effect3835"
       inkscape:original-d="m 2.8571429,363.79075 c 742.8571471,-125.71428 0,0 0,0 z"
       inkscape:connector-curvature="0" />
    <path
       style="fill:#2faeba;fill-opacity:1;stroke:#aead4d;stroke-width:2.39961672;stroke-linecap:butt;stroke-linejoin:round;stroke-miterlimit:4;stroke-opacity:1;stroke-dasharray:0.23996167, 0.23996167;stroke-dashoffset:0"
       d="m 740.82325,905.04356 c -12.34032,0.94116 -24.53683,2.74177 -36.27478,5.5563 -18.69696,4.48319 -36.15531,11.2449 -54.99723,15.42573 -8.8329,1.95992 -17.90699,3.3382 -26.91353,4.87127 -26.28258,4.47375 -52.06869,10.28112 -78.40032,14.61384 -29.12489,4.79234 -59.0065,7.77303 -88.93168,7.30692 -13.27242,-0.20672 -26.60241,-1.08801 -39.78524,0 -11.02056,0.90954 -21.73832,3.18204 -32.76431,4.0594 -14.41205,1.14678 -29.2551,-0.0947 -43.2957,2.43564 -9.67815,1.74419 -18.48506,5.19733 -27.27919,8.49937 -8.79414,3.30203 -17.87165,6.52949 -27.71802,7.73823 -4.62877,0.56823 -9.34511,0.67891 -14.04186,0.81188 -19.66193,0.55666 -39.42406,1.54022 -58.50769,4.87128 -7.80106,1.36168 -15.47533,3.11344 -23.40307,4.0594 -6.19928,0.73968 -12.501,0.97995 -18.72247,1.62375 -18.64097,1.92903 -36.27208,7.44519 -54.99723,8.93069 -8.47829,0.67259 -17.043217,0.49783 -25.560551,0.86262 -8.517313,0.36478 -17.161859,1.30811 -24.756067,4.00862 -8.393827,2.9849 -14.968735,7.9153 -21.099335,12.8887 -6.130587,4.9733 -12.116474,10.163 -19.856048,13.9035 -3.893377,1.8814 -8.229239,3.3792 -12.871692,4.0593 -3.4686827,0.508 -6.985915,0.5348 -10.53138492,0.3805 l 0,18.8761 c 1.95387222,-0.4123 3.92010832,-0.7801 5.85076892,-1.243 18.696966,-4.4831 36.155309,-11.2449 54.997231,-15.4257 8.832911,-1.9601 17.907003,-3.3382 26.91354,-4.8713 26.282578,-4.4739 52.068688,-10.2811 78.400308,-14.6138 29.1249,-4.7924 59.00652,-7.7732 88.9317,-7.307 13.27242,0.2067 26.6024,1.0881 39.78523,0 11.02057,-0.9095 21.73831,-3.1821 32.76429,-4.0594 14.41206,-1.1468 29.25511,0.094 43.2957,-2.4356 9.67817,-1.74429 18.48508,-5.22274 27.27922,-8.52479 8.79414,-3.30202 17.87162,-6.50409 27.71802,-7.71285 4.62876,-0.56824 9.34509,-0.67891 14.04184,-0.81188 19.66194,-0.55667 39.42406,-1.54022 58.5077,-4.87128 7.80105,-1.36168 15.47531,-3.11345 23.40307,-4.05939 6.19928,-0.7397 12.50101,-0.97996 18.72248,-1.62377 18.64096,-1.92901 36.27206,-7.44516 54.99721,-8.93068 8.4783,-0.67259 17.04322,-0.52321 25.56056,-0.88799 8.51732,-0.36477 17.16185,-1.28278 24.75608,-3.98327 8.39381,-2.98487 14.96873,-7.94068 21.09932,-12.91398 6.13059,-4.97329 12.11648,-10.13766 19.85605,-13.87807 3.89337,-1.88161 8.22923,-3.37937 12.8717,-4.0594 6.74621,-0.98819 13.7354,-0.22865 20.58739,0.30445 6.85199,0.53312 14.05128,0.80135 20.36799,-1.11633 l 0,-22.75801 z"
       id="path4429"
       inkscape:connector-curvature="0"
       inkscape:export-filename="/Users/probberechts/Desktop/HCI game art/river.png"
       inkscape:export-xdpi="60.555088"
       inkscape:export-ydpi="60.555088" />
  </g>
  <g
     inkscape:groupmode="layer"
     id="layer2"
     inkscape:label="bridge"
     style="display:none"
     transform="translate(0,-902.36218)">
    <g
       id="g4585"
       transform="matrix(1.2514997,0,0,1.3026828,-10.966996,87.606637)"
       inkscape:export-xdpi="57.430977"
       inkscape:export-ydpi="57.430977"
       inkscape:export-filename="/Users/probberechts/Desktop/HCI game art/bridge.png">
      <path
         id="path4504"
         d="m 450.40625,644.40625 c -0.19447,0.009 -0.39376,0.0283 -0.59375,0.0625 L 397,646.75 c 1.26475,0.34794 2.4131,1.28677 3.46875,2.625 l 55.96875,0 c -1.57492,-3.16679 -3.56352,-5.08126 -6.03125,-4.96875 z"
         style="fill:#825201;fill-opacity:1;fill-rule:evenodd;stroke:#000000;stroke-width:1;stroke-miterlimit:4;stroke-opacity:1;stroke-dasharray:none"
         inkscape:connector-curvature="0" />
      <path
         inkscape:connector-curvature="0"
         id="rect4509"
         d="m 400.4,649.26875 c 1.28858,1.59435 2.40604,3.83535 3.375,6.5 l 54.90625,0 c -0.61085,-2.48697 -1.34571,-4.70443 -2.25,-6.5 l -56.03125,0 z"
         style="fill:#825201;fill-opacity:1;fill-rule:evenodd;stroke:#000000;stroke-width:1;stroke-miterlimit:4;stroke-opacity:1;stroke-dasharray:none" />
      <path
         inkscape:connector-curvature="0"
         id="rect4511"
         d="m 403.725,655.65625 c 0.71638,1.9674 1.33926,4.15537 1.875,6.5 l 54.21875,0 c -0.3025,-2.30146 -0.69154,-4.48772 -1.1875,-6.5 l -54.90625,0 z"
         style="fill:#825201;fill-opacity:1;fill-rule:evenodd;stroke:#000000;stroke-width:1;stroke-miterlimit:4;stroke-opacity:1;stroke-dasharray:none" />
      <path
         inkscape:connector-curvature="0"
         id="rect4513"
         d="m 405.664,662.26339 c 0.46259,2.07525 0.8374,4.26839 1.15625,6.5 l 53.5625,0 c -0.10504,-2.21382 -0.29749,-4.40151 -0.5625,-6.5 l -54.15625,0 z"
         style="fill:#825201;fill-opacity:1;fill-rule:evenodd;stroke:#000000;stroke-width:1;stroke-miterlimit:4;stroke-opacity:1;stroke-dasharray:none" />
      <path
         inkscape:connector-curvature="0"
         id="rect4515"
         d="m 406.854,668.83036 c 0.31739,2.14079 0.56879,4.31505 0.75,6.5 l 52.96875,0 c 0.0387,-2.17035 0.0206,-4.34337 -0.0937,-6.5 l -53.625,0 z"
         style="fill:#825201;fill-opacity:1;fill-rule:evenodd;stroke:#000000;stroke-width:1;stroke-miterlimit:4;stroke-opacity:1;stroke-dasharray:none" />
      <path
         inkscape:connector-curvature="0"
         id="rect4519"
         d="m 407.579,675.25 c 0.17446,2.18983 0.30954,4.37903 0.34375,6.5 l 52.21875,0 c 0.20614,-2.10433 0.32744,-4.29718 0.375,-6.5 l -52.9375,0 z"
         style="fill:#825201;fill-opacity:1;fill-rule:evenodd;stroke:#000000;stroke-width:1;stroke-miterlimit:4;stroke-opacity:1;stroke-dasharray:none" />
      <path
         inkscape:connector-curvature="0"
         id="rect4521"
         d="m 407.852,681.84375 c 0.0408,2.25984 -0.003,4.44035 -0.125,6.5 l 51.46875,0 c 0.40313,-2.03552 0.68879,-4.22255 0.90625,-6.5 l -52.25,0 z"
         style="fill:#825201;fill-opacity:1;fill-rule:evenodd;stroke:#000000;stroke-width:1;stroke-miterlimit:4;stroke-opacity:1;stroke-dasharray:none" />
      <path
         inkscape:connector-curvature="0"
         id="rect4523"
         d="m 407.741,688.25 c -0.14182,2.37772 -0.38584,4.57744 -0.75,6.5 l 50.34375,0 c 0.75052,-1.86773 1.35957,-4.07175 1.84375,-6.5 l -51.4375,0 z"
         style="fill:#825201;fill-opacity:1;fill-rule:evenodd;stroke:#000000;stroke-width:1;stroke-miterlimit:4;stroke-opacity:1;stroke-dasharray:none" />
      <path
         inkscape:connector-curvature="0"
         id="rect4525"
         d="m 406.96,694.6875 c -0.56545,2.95353 -1.38802,5.23788 -2.5,6.5 l 21.71875,0 27.53125,-1.21875 c 1.42588,-1.01777 2.61745,-2.87159 3.59375,-5.28125 l -50.34375,0 z"
         style="fill:#825201;fill-opacity:1;fill-rule:evenodd;stroke:#000000;stroke-width:1;stroke-miterlimit:4;stroke-opacity:1;stroke-dasharray:none" />
    </g>
  </g>
</svg>
