<?xml version="1.0" encoding="UTF-8" standalone="no"?>
<!-- Created with Inkscape (http://www.inkscape.org/) -->

<svg
   xmlns:dc="http://purl.org/dc/elements/1.1/"
   xmlns:cc="http://creativecommons.org/ns#"
   xmlns:rdf="http://www.w3.org/1999/02/22-rdf-syntax-ns#"
   xmlns:svg="http://www.w3.org/2000/svg"
   xmlns="http://www.w3.org/2000/svg"
   xmlns:sodipodi="http://sodipodi.sourceforge.net/DTD/sodipodi-0.dtd"
   xmlns:inkscape="http://www.inkscape.org/namespaces/inkscape"
   width="400"
   height="280"
   id="svg3986"
   version="1.1"
   inkscape:version="0.48.5 r10040"
   sodipodi:docname="tree.svg">
  <sodipodi:namedview
     id="base"
     pagecolor="#ffffff"
     bordercolor="#666666"
     borderopacity="1.0"
     inkscape:pageopacity="0.0"
     inkscape:pageshadow="2"
     inkscape:zoom="0.6"
     inkscape:cx="404.28572"
     inkscape:cy="410"
     inkscape:document-units="px"
     inkscape:current-layer="layer1"
     showgrid="false"
     inkscape:window-width="1280"
     inkscape:window-height="702"
     inkscape:window-x="0"
     inkscape:window-y="0"
     inkscape:window-maximized="1" />
  <defs
     id="defs3988">
    <clipPath
       clipPathUnits="userSpaceOnUse"
       id="clipPath4637">
      <path
         inkscape:connector-curvature="0"
         id="path4639"
         d="m 207.90625,321.3125 20.6875,-35.8125 0.5625,1.8125 10.59375,7.75 0.21875,-1.78125 -3.34375,-6.21875 47.03125,9.875 -0.15625,0.1875 -3.875,1.15625 -3.625,28.65625 14.03125,23.25 9.125,-12.1875 0.5625,-20.34375 -4.3125,-8.1875 40.34375,50.0625 -4,1.6875 -23.53125,31.375 0,93.34375 -40,0 0,-94.46875 -28,-46.4375 -32.3125,-23.71875 z"
         style="font-size:medium;font-style:normal;font-variant:normal;font-weight:normal;font-stretch:normal;text-indent:0;text-align:start;text-decoration:none;line-height:normal;letter-spacing:normal;word-spacing:normal;text-transform:none;direction:ltr;block-progression:tb;writing-mode:lr-tb;text-anchor:start;baseline-shift:baseline;color:#000000;fill:#a4521c;fill-opacity:1;stroke:none;stroke-width:40;marker:none;visibility:visible;display:inline;overflow:visible;enable-background:accumulate;font-family:Sans;-inkscape-font-specification:Sans" />
    </clipPath>
  </defs>
  <metadata
     id="metadata3991">
    <rdf:RDF>
      <cc:Work
         rdf:about="">
        <dc:format>image/svg+xml</dc:format>
        <dc:type
           rdf:resource="http://purl.org/dc/dcmitype/StillImage" />
        <dc:title></dc:title>
      </cc:Work>
    </rdf:RDF>
  </metadata>
  <g
     inkscape:label="Layer 1"
     inkscape:groupmode="layer"
     id="layer1"
     style="display:inline"
     transform="translate(0,-772.36218)">
    <path
       style="font-size:medium;font-style:normal;font-variant:normal;font-weight:normal;font-stretch:normal;text-indent:0;text-align:start;text-decoration:none;line-height:normal;letter-spacing:normal;word-spacing:normal;text-transform:none;direction:ltr;block-progression:tb;writing-mode:lr-tb;text-anchor:start;baseline-shift:baseline;opacity:0.3;color:#000000;fill:#000000;fill-opacity:1;stroke:none;stroke-width:40;marker:none;visibility:visible;display:inline;overflow:visible;enable-background:accumulate;font-family:Sans;-inkscape-font-specification:Sans"
       d="m 196.68751,774.66667 -5.40625,7.53125 -2.28125,-0.5 -4.09375,-0.90625 -0.84375,3.75 -5.40625,-1.28125 -5.5,-1.25 -0.59375,2.59375 -1,-1.0625 -4.03125,3.8125 -3.6875,3.4375 -1.4375,4.3125 -0.5625,0.0937 0.1875,1.0625 -0.0937,0.21875 -3.59375,-2.6875 -2.9375,-12.5 -3.9375,0.9375 -6.03125,1.4375 -4.1875,4.5625 -3.65625,4.03125 -3,3.3125 -2.46875,-2 -2.96875,3.6875 -1.3125,-0.5625 -0.7188,-0.5312 -0.125,0.1875 -1.46875,-0.625 -0.0625,-0.0937 -0.0625,0.0312 -3.46875,-1.4375 -5.71875,0.96875 -4.1875,0.71875 1.46875,8.5625 -1.71875,4.1875 -0.53125,1.28125 -2.28125,0.40625 0.625,3.53125 -0.40625,0.96875 -5.78125,1.25 0.21875,1.03125 -7.656253,-1.1875 -0.75,4.75 -0.0625,0.34375 -2.28125,2.15625 -1.84375,-2.96875 -2.21875,-3.625 -10.625,6.5625 -4.3125,-7.03125 -3.9375,2.40625 -4.25,2.625 -2.53125,4.34375 -2.625,4.5 -1.5625,2.65625 -4.78125,0.625 0.625,4.8125 0.59375,4.53125 -0.0625,1 -1.875,-0.75 -5.5625,0.90625 -1.71875,0.28125 -0.5,-0.125 -0.0625,0.25 -3.6875,0.625 -6,1 -4.40625,4.15625 -3.15625,2.9375 8.09375,8.625 -12.15625,14.21875 3.15625,2.6875 3.4375,2.9375 4.34375,1.15625 0.125,0.0312 -1.75,1.28125 2.59375,3.5625 -0.53125,1.65625 -0.75,2.3125 -4.53125,1.21875 1.34375,5 1.34375,4.90625 0.5,0.53125 -0.6875,0.65625 2.84375,3.0625 -0.5625,3.3125 -3.125,2.34375 4.0625,5.34375 3.28125,4.40625 0.15625,0.0625 0.5,2.625 -0.15625,0.15625 -2.4375,2.40625 -1.8125,0.6875 -4.875,1.875 -3.34375,4.03125 -3.125,3.75 4.40625,3.65625 -0.0312,0.25 -0.65625,4.4375 1.84375,0.28125 1.34375,2 3.84375,5.78125 3.34375,1.09375 -0.5,11.3125 4.0625,0.1875 4.15625,0.1875 3.90625,-1.5 3.75,-1.4375 -0.65625,3.59375 -0.3125,1.75 -0.53125,0.875 0.3125,0.1875 -0.0312,0.21875 -2.96875,1.5 -2.96875,5.25 -2.09375,3.65625 4.5625,2.59375 -0.28125,1.21875 4.0625,0.90625 3.40625,1.96875 -2.34375,3.3125 3.5,2.46875 0.4375,0.3125 -2.34375,12.18753 4.6875,0.875 6.71875,1.3125 5.9375,-3 1.15625,1.4375 3.21865,4.0313 3,3.7813 4.4375,1.9687 4.03125,1.8438 6.90625,-15.3438 9.250003,5.0937 2.3125,-4.25 2.84375,-5.15623 3.28125,-0.75 -0.9375,-4.09375 -1,-4.46875 -0.9375,-1.15625 3.125,-2.34375 0.15625,1.8125 2.78125,-0.25 0.375,1 1.75,4.65625 3.6875,3.3125 3.90625,3.46875 5.6875,-6.375 3.90625,3.21875 3.46875,2.84375 2.96875,-3.625 3.3125,1.5625 0.8125,-1.78125 0.375,0 6.96875,9.93748 3.96875,-2.7812 4.625,-3.25003 1.6875,-3.875 4.8125,0 9.1875,4.0625 2.03125,-4.59375 0.1875,-0.4375 1.21875,-1.34375 0.78125,-0.0312 4.125,-0.25 -0.28125,-5.03125 3.5625,-0.78125 0.6875,-0.15625 3.3125,1.40625 0.84375,0 0.0937,0.15625 1.71875,12.12498 4.34375,-0.5937 2.09375,-0.28128 0.0312,0.0625 1.25,3.81248 4.21875,-1.375 0,0.2188 -0.3125,4.4062 4,0.25 0.90625,3.2188 1.90625,6.6563 5.625,4.0625 4.21875,3.0312 5.40625,-7.5312 2.28125,0.5 4.09375,0.9062 0.84375,-3.75 5.40625,1.2813 5.5,1.25 0.59375,-2.5938 1,1.0625 4.03125,-3.8125 3.6875,-3.4375 1.4375,-4.3125 0.5625,-0.094 -0.1875,-1.0625 0.0937,-0.2188 3.59375,2.6875 2.9375,12.5001 3.9375,-0.9375 6.03125,-1.4375 4.1875,-4.5625 3.65625,-4.0313 3,-3.3125 2.46875,2 2.96875,-3.6875 1.3125,0.5625 0.71875,0.5312 0.125,-0.1875 1.46875,0.625 0.0625,0.094 0.0625,-0.031 3.46875,1.4375 5.71875,-0.9687 4.1875,-0.7188 -1.46875,-8.56248 1.71875,-4.1875 0.53125,-1.28125 2.28125,-0.40625 -0.625,-3.53125 0.40625,-0.96875 5.78125,-1.25 -0.21875,-1.03125 7.65625,1.1875 0.75,-4.75 0.0625,-0.34375 2.28125,-2.15625 1.84375,2.96875 2.21875,3.625 10.625,-6.5625 4.3125,7.03125 3.9375,-2.40625 4.25,-2.625 2.53125,-4.34375 2.625,-4.5 1.5625,-2.65625 4.78125,-0.625 -0.625,-4.8125 -0.59375,-4.53125 0.0625,-1 1.875,0.75 5.5625,-0.90625 1.71875,-0.28125 0.5,0.125 0.0625,-0.25 3.6875,-0.625 6,-1 4.40625,-4.15625 3.15625,-2.9375 -8.09375,-8.625 12.15625,-14.21875 -3.15625,-2.6875 -3.4375,-2.9375 -4.34375,-1.15625 -0.125,-0.0312 1.75,-1.28125 -2.59375,-3.5625 0.53125,-1.65625 0.75,-2.3125 4.53125,-1.21875 -1.34375,-5 -1.34375,-4.90625 -0.5,-0.53125 0.6875,-0.65625 -2.8436,-3.06265 0.5625,-3.3125 3.125,-2.34375 -4.0625,-5.34375 -3.28125,-4.40625 -0.15625,-0.0625 -0.5,-2.625 0.15625,-0.15625 2.4375,-2.40625 1.8125,-0.6875 4.875,-1.875 3.34375,-4.03125 3.125,-3.75 -4.40625,-3.65625 0.0312,-0.25 0.65625,-4.4375 -1.84375,-0.28125 -1.34375,-2 -3.84375,-5.78125 -3.34375,-1.09375 0.5,-11.3125 -4.0625,-0.1875 -4.15625,-0.1875 -3.90625,1.5 -3.75,1.4375 0.65625,-3.59375 0.3125,-1.75 0.53125,-0.875 -0.3125,-0.1875 0.0312,-0.21875 2.96875,-1.5 2.96875,-5.25 2.09375,-3.65625 -4.5625,-2.59375 0.28125,-1.21875 -4.0625,-0.90625 -3.40625,-1.96875 2.34375,-3.3125 -3.5,-2.46875 -0.4375,-0.3125 2.34375,-12.1875 -4.6875,-0.875 -6.71875,-1.3125 -5.9375,3 -1.15625,-1.4375 -3.21865,-4.03125 -3,-3.78125 -4.4375,-1.96875 -4.03125,-1.84375 -6.90625,15.34375 -9.25,-5.09375 -2.3125,4.25 -2.84375,5.15625 -3.28125,0.75 0.9375,4.09375 1,4.46875 0.9375,1.15625 -3.125,2.34375 -0.15625,-1.8125 -2.78125,0.25 -0.375,-1 -1.75,-4.65625 -3.6875,-3.3125 -3.90625,-3.46875 -5.6875,6.375 -3.90625,-3.21875 -3.46875,-2.84375 -2.96875,3.625 -3.3125,-1.5625 -0.8125,1.78125 -0.375,0 -6.96875,-9.9375 -3.96875,2.78125 -4.625,3.25 -1.6875,3.875 -4.8125,0 -9.1875,-4.0625 -2.03125,4.59375 -0.1875,0.4375 -1.21875,1.34375 -0.78125,0.0312 -4.125,0.25 0.28125,5.03125 -3.5625,0.78125 -0.6875,0.15625 -3.3125,-1.40625 -0.84375,0 -0.0937,-0.15625 -1.71875,-12.125 -4.34375,0.59375 -2.09375,0.28125 -0.0312,-0.0625 -1.25,-3.8125 -4.21875,1.375 0,-0.21875 0.3125,-4.40625 -4,-0.25 -0.90625,-3.21875 -1.90625,-6.65625 -5.625,-4.0625 -4.21885,-3.0312 z m 41.625,114.59375 -1.1875,1 0.25,-0.5 0.9375,-0.5 z m -54.1875,19.40625 -0.25,0.5 -0.9375,0.5 1.1875,-1 z"
       id="path2995"
       inkscape:connector-curvature="0" />
    <path
       id="path4612"
       d="m 176.65339,794.33334 -5.29017,7.62177 -2.23227,-0.50601 -4.00586,-0.91714 -0.82564,3.79507 -5.29019,-1.29665 -5.38192,-1.26502 -0.58099,2.62492 -0.97853,-1.07527 -3.94471,3.85832 -3.60833,3.47882 -1.40664,4.36434 -0.55042,0.0949 0.18348,1.07527 -0.0917,0.22138 -3.51659,-2.71981 -2.87443,-12.65024 -3.85297,0.94877 -5.90176,1.45478 -4.0976,4.61734 -3.57775,4.0797 -2.93559,3.35231 -2.41575,-2.02404 -2.90502,3.73183 -1.28431,-0.56926 -0.70336,-0.53759 -0.12233,0.18976 -1.43722,-0.63252 -0.0612,-0.0949 -0.0611,0.0315 -3.39428,-1.45479 -5.595983,0.98039 -4.0976,0.7274 1.43722,8.66541 -1.68185,4.23784 -0.51984,1.29664 -2.23227,0.41113 0.61158,3.5737 -0.39753,0.98039 -5.65713,1.26503 0.21406,1.04364 -7.49188,-1.20177 -0.7339,4.80709 -0.0611,0.34788 -2.23228,2.18217 -1.80416,-3.00443 -2.17112,-3.66857 -10.39688,6.64138 -4.21992,-7.11577 -3.85297,2.43518 -4.15876,2.65654 -2.47689,4.39597 -2.56865,4.55408 -1.52896,2.68819 -4.67859,0.6325 0.61158,4.87035 0.581,4.58572 -0.0612,1.01201 -1.83475,-0.75901 -5.44308,0.91714 -1.68184,0.28463 -0.48926,-0.1265 -0.0612,0.25301 -3.60832,0.6325 -5.8712,1.01203 -4.31164,4.2062 -3.08848,2.97281 7.91998,8.72867 -11.8952703,14.38965 3.0884803,2.7198 3.3637,2.9728 4.2505,1.17016 0.12232,0.0315 -1.71243,1.29665 2.53807,3.60532 -0.51986,1.67615 -0.73389,2.3403 -4.43396,1.23341 1.31489,5.06009 1.31489,4.96522 0.48928,0.53763 -0.67274,0.66414 2.7827,3.09931 -0.55043,3.35232 -3.05791,2.37192 3.97529,5.40798 3.21079,4.45921 0.15289,0.0633 0.48927,2.65655 -0.15289,0.15812 -2.38516,2.43516 -1.77359,0.69577 -4.77034,1.89754 -3.27197,4.07971 -3.0579003,3.79508 4.3116503,3.70019 -0.0305,0.253 -0.64216,4.49085 1.80417,0.28462 1.3149,2.02404 3.76122,5.85074 3.27197,1.1069 -0.48927,11.44846 3.97529,0.18976 4.067,0.18976 3.8224,-1.51803 3.66949,-1.45478 -0.64217,3.63695 -0.30578,1.77102 -0.51985,0.88552 0.30579,0.18975 -0.0305,0.22138 -2.90502,1.51803 -2.90501,5.3131 -2.04879,3.7002 4.46454,2.6249 -0.27521,1.2335 3.97529,0.9171 3.33311,1.9925 -2.29343,3.3523 3.42485,2.4984 0.42812,0.3162 -2.29344,12.334 4.58687,0.8856 6.57449,1.3282 5.81003,-3.036 1.13142,1.4547 3.14955,4.0798 2.9356,3.8267 4.34223,1.9924 3.94471,1.8659 6.75796,-15.5281 9.05142,5.1549 2.26285,-4.3011 2.7827,-5.2182 3.21079,-0.759 -0.91736,-4.143 -0.97854,-4.5224 -0.91737,-1.1702 3.05792,-2.3719 0.15289,1.8343 2.72154,-0.253 0.36694,1.012 1.712443,4.7122 3.60833,3.3523 3.82238,3.5105 5.56539,-6.4516 3.82239,3.2574 3.39428,2.8779 2.90502,-3.6685 3.24138,1.5812 0.79506,-1.8026 0.36694,0 6.81914,10.0569 3.88355,-2.8147 4.52569,-3.289 1.65127,-3.9216 4.70918,0 8.99025,4.1113 1.98764,-4.6489 0.18348,-0.4428 1.19258,-1.3599 0.76448,-0.032 4.03644,-0.253 -0.27521,-5.0917 3.48601,-0.7907 0.67274,-0.1581 3.24138,1.4232 0.82564,0 0.0917,0.1581 1.68184,12.2707 4.25049,-0.6009 2.0488,-0.2846 0.0305,0.063 1.22317,3.8583 4.12818,-1.3915 0,0.2214 -0.30578,4.4592 3.91411,0.253 0.8868,3.2574 1.86531,6.7363 5.50425,4.1113 4.12817,3.0677 5.29019,-7.6218 2.23227,0.5061 4.00586,0.9171 0.82564,-3.7951 5.29017,1.2967 5.38192,1.265 0.581,-2.6249 0.97853,1.0752 3.94471,-3.8583 3.60833,-3.4788 1.40664,-4.3643 0.55042,-0.095 -0.18347,-1.0753 0.0917,-0.2214 3.51659,2.7198 2.87444,12.6503 3.85296,-0.9488 5.90177,-1.4548 4.09759,-4.6173 3.57776,-4.0797 2.9356,-3.3523 2.41574,2.024 2.90502,-3.7318 1.28431,0.5692 0.70332,0.5377 0.12232,-0.1898 1.43722,0.6325 0.0611,0.095 0.0612,-0.032 3.39427,1.4548 5.59598,-0.9804 4.09759,-0.7274 -1.43722,-8.6654 1.68186,-4.2378 0.51983,-1.2967 2.23229,-0.4111 -0.61158,-3.5737 0.39752,-0.9805 5.65712,-1.265 -0.21404,-1.0436 7.49187,1.2018 0.7339,-4.8071 0.0611,-0.34792 2.23227,-2.18217 1.80417,3.00439 2.17112,3.6686 10.39688,-6.64137 4.21992,7.11577 3.85296,-2.4352 4.15876,-2.65652 2.4769,-4.39597 2.56865,-4.55407 1.52895,-2.68819 4.6786,-0.63251 -0.61158,-4.87034 -0.581,-4.58572 0.0611,-1.01202 1.83475,0.75902 5.44308,-0.91715 1.68185,-0.28463 0.48926,0.1265 0.0611,-0.25301 3.60833,-0.6325 5.87118,-1.01202 4.31166,-4.20621 3.08848,-2.97281 -7.91998,-8.72867 11.89527,-14.38965 -3.0885,-2.7198 -3.36369,-2.97281 -4.2505,-1.17015 -0.12231,-0.0315 1.71243,-1.29665 -2.53807,-3.60531 0.51985,-1.67617 0.73389,-2.34029 4.43397,-1.2334 -1.3149,-5.0601 -1.3149,-4.96522 -0.48926,-0.53763 0.67274,-0.66414 -2.78256,-3.09945 0.55043,-3.35233 3.05791,-2.37192 -3.97529,-5.40799 -3.21079,-4.4592 -0.15289,-0.0633 -0.48927,-2.65655 0.15289,-0.15813 2.38516,-2.43517 1.77359,-0.69576 4.77034,-1.89754 3.27197,-4.0797 3.0579,-3.79508 -4.31165,-3.7002 0.0305,-0.253 0.64216,-4.49084 -1.80417,-0.28463 -1.3149,-2.02403 -3.76122,-5.85074 -3.27197,-1.1069 0.48927,-11.44846 -3.97529,-0.18977 -4.067,-0.18975 -3.8224,1.51803 -3.66949,1.45478 0.64217,-3.63695 0.30578,-1.77103 0.51985,-0.88551 -0.30579,-0.18975 0.0305,-0.22139 2.90502,-1.51802 2.90501,-5.31311 2.04879,-3.70019 -4.46454,-2.62494 0.27521,-1.2334 -3.97529,-0.91714 -3.33311,-1.99241 2.29343,-3.35231 -3.42485,-2.49842 -0.42812,-0.31626 2.29344,-12.33399 -4.58687,-0.88552 -6.57449,-1.32827 -5.81003,3.03605 -1.13142,-1.45476 -3.14955,-4.07972 -2.9356,-3.8267 -4.34223,-1.99241 -3.94471,-1.86591 -6.75796,15.52818 -9.05142,-5.15497 -2.26285,4.30107 -2.7827,5.21823 -3.21079,0.75901 0.91736,4.14297 0.97854,4.52245 0.91737,1.17015 -3.05792,2.37192 -0.15289,-1.83429 -2.72154,0.25301 -0.36694,-1.01202 -1.71244,-4.71222 -3.60833,-3.35231 -3.82238,-3.51045 -5.56539,6.45164 -3.82239,-3.25745 -3.39428,-2.87792 -2.90502,3.66856 -3.24138,-1.58128 -0.79506,1.80267 -0.36694,0 -6.81914,-10.05695 -3.88355,2.81469 -4.52569,3.28905 -1.65127,3.92158 -4.70918,0 -8.99025,-4.11132 -1.98764,4.64895 -0.18348,0.44276 -1.19258,1.3599 -0.76448,0.0315 -4.03644,0.253 0.27521,5.09172 -3.48601,0.79064 -0.67274,0.15814 -3.24138,-1.42316 -0.82564,0 -0.0918,-0.15812 -1.68184,-12.27074 -4.25049,0.60089 -2.0488,0.28461 -0.0305,-0.0633 -1.22317,-3.85832 -4.12818,1.39153 0,-0.22139 0.30578,-4.45921 -3.91411,-0.253 -0.8868,-3.25743 -1.86531,-6.73626 -5.50425,-4.11134 -4.1281,-3.0677 z m 40.73135,115.97111 -1.16201,1.01203 0.24464,-0.50602 0.91737,-0.50601 z m -53.02413,19.6395 -0.24464,0.50602 -0.91737,0.50601 1.16201,-1.01203 z"
       style="font-size:medium;font-style:normal;font-variant:normal;font-weight:normal;font-stretch:normal;text-indent:0;text-align:start;text-decoration:none;line-height:normal;letter-spacing:normal;word-spacing:normal;text-transform:none;direction:ltr;block-progression:tb;writing-mode:lr-tb;text-anchor:start;baseline-shift:baseline;color:#000000;fill:#066623;fill-opacity:1;stroke:none;stroke-width:40;marker:none;visibility:visible;display:inline;overflow:visible;enable-background:accumulate;font-family:Sans;-inkscape-font-specification:Sans"
       inkscape:connector-curvature="0" />
    <path
       style="font-size:medium;font-style:normal;font-variant:normal;font-weight:normal;font-stretch:normal;text-indent:0;text-align:start;text-decoration:none;line-height:normal;letter-spacing:normal;word-spacing:normal;text-transform:none;direction:ltr;block-progression:tb;writing-mode:lr-tb;text-anchor:start;baseline-shift:baseline;color:#000000;fill:#327323;fill-opacity:1;stroke:none;stroke-width:40;marker:none;visibility:visible;display:inline;overflow:visible;enable-background:accumulate;font-family:Sans;-inkscape-font-specification:Sans"
       d="m 183.35417,786.33334 -5.40625,7.53125 -2.28125,-0.5 -4.09375,-0.90625 -0.84375,3.75 -5.40625,-1.28125 -5.5,-1.25 -0.59375,2.59375 -1,-1.0625 -4.03125,3.8125 -3.6875,3.4375 -1.4375,4.3125 -0.5625,0.0937 0.1875,1.0625 -0.0937,0.21875 -3.59375,-2.6875 -2.9375,-12.5 -3.9375,0.9375 -6.03125,1.4375 -4.1875,4.5625 -3.65625,4.03125 -3,3.3125 -2.46875,-2 -2.96875,3.6875 -1.3125,-0.5625 -0.7188,-0.5312 -0.125,0.1875 -1.46875,-0.625 -0.0625,-0.0937 -0.0625,0.0312 -3.46875,-1.4375 -5.71875,0.96875 -4.187503,0.71875 1.468753,8.5625 -1.718753,4.1875 -0.53125,1.28125 -2.28125,0.40625 0.625,3.53125 -0.40625,0.96875 -5.78125,1.25 0.21875,1.03125 -7.65625,-1.1875 -0.75,4.75 -0.0625,0.34375 -2.28125,2.15625 -1.84375,-2.96875 -2.21875,-3.625 -10.625,6.5625 -4.3125,-7.03125 -3.9375,2.40625 -4.25,2.625 -2.53125,4.34375 -2.625,4.5 -1.5625,2.65625 -4.78125,0.625 0.625,4.8125 0.59375,4.53125 -0.0625,1 -1.875,-0.75 -5.5625,0.90625 -1.71875,0.28125 -0.5,-0.125 -0.0625,0.25 -3.6875,0.625 -6,1 -4.40625,4.15625 -3.15625,2.9375 8.09375,8.625 -12.15625,14.21875 3.15625,2.6875 3.4375,2.9375 4.34375,1.15625 0.125,0.0312 -1.75,1.28125 2.59375,3.5625 -0.53125,1.65625 -0.75,2.3125 -4.53125,1.21875 1.34375,5 1.34375,4.90625 0.5,0.53125 -0.6875,0.65625 2.84375,3.0625 -0.5625,3.3125 -3.125,2.34375 4.0625,5.34375 3.28125,4.40625 0.15625,0.0625 0.5,2.625 -0.15625,0.15625 -2.4375,2.40625 -1.8125,0.6875 -4.875,1.875 -3.34375,4.03125 -3.125,3.75 4.40625,3.65625 -0.0312,0.25 -0.65625,4.4375 1.84375,0.28125 1.34375,2 3.84375,5.78125 3.34375,1.09375 -0.5,11.3125 4.0625,0.1875 4.15625,0.1875 3.90625,-1.5 3.75,-1.4375 -0.65625,3.59375 -0.3125,1.75 -0.53125,0.875 0.3125,0.1875 -0.0312,0.21875 -2.96875,1.5 -2.96875,5.25 -2.09375,3.65625 4.5625,2.59375 -0.28125,1.21875 4.0625,0.90625 3.40625,1.96875 -2.34375,3.31251 3.5,2.4687 0.4375,0.3125 -2.34375,12.1876 4.6875,0.875 6.71875,1.3125 5.9375,-3 1.15625,1.4375 3.21865,4.0313 3,3.7812 4.4375,1.9688 4.03125,1.8437 6.90625,-15.3437 9.25,5.0937 2.3125,-4.25 2.84375,-5.1562 3.28125,-0.75 -0.9375,-4.0938 -1,-4.4688 -0.9375,-1.15621 3.125003,-2.34375 0.15625,1.8125 2.78125,-0.25 0.375,0.99996 1.75,4.6563 3.6875,3.3125 3.90625,3.4688 5.6875,-6.3751 3.90625,3.2188 3.46875,2.8438 2.96875,-3.625 3.3125,1.5625 0.8125,-1.7813 0.375,0 6.96875,9.9375 3.96875,-2.7812 4.625,-3.25 1.6875,-3.875 4.8125,0 9.1875,4.0625 2.03125,-4.5938 0.1875,-0.4375 1.21875,-1.3438 0.78125,-0.031 4.125,-0.25 -0.28125,-5.03121 3.5625,-0.78125 0.6875,-0.15625 3.3125,1.40621 0.84375,0 0.0937,0.1563 1.71875,12.125 4.34375,-0.5937 2.09375,-0.2813 0.0312,0.062 1.25,3.8125 4.21875,-1.375 0,0.2188 -0.3125,4.4062 4,0.25 0.90625,3.2188 1.90625,6.6562 5.625,4.0626 4.21875,3.0312 5.40625,-7.5313 2.28125,0.5 4.09375,0.9063 0.84375,-3.75 5.40625,1.2812 5.5,1.25 0.59375,-2.5937 1,1.0625 4.03125,-3.8125 3.6875,-3.4375 1.4375,-4.3125 0.5625,-0.094 -0.1875,-1.0625 0.0937,-0.2188 3.59375,2.6875 2.9375,12.5 3.9375,-0.9375 6.03125,-1.4375 4.1875,-4.5625 3.65625,-4.0312 3,-3.3125 2.46875,2 2.96875,-3.6875 1.3125,0.5625 0.71875,0.5312 0.125,-0.1875 1.46875,0.625 0.0625,0.094 0.0625,-0.031 3.46875,1.4375 5.71875,-0.9687 4.1875,-0.7188 -1.46875,-8.5625 1.71875,-4.1875 0.53125,-1.2813 2.28125,-0.4062 -0.625,-3.53126 0.40625,-0.96875 5.78125,-1.25 -0.21875,-1.03125 7.65625,1.1875 0.75,-4.75 0.0625,-0.34375 2.28125,-2.15625 1.84375,2.96875 2.21875,3.625 10.625,-6.5625 4.3125,7.03125 3.9375,-2.40625 4.25,-2.625 2.53125,-4.34375 2.625,-4.5 1.5625,-2.65625 4.78125,-0.625 -0.625,-4.8125 -0.59375,-4.53125 0.0625,-1 1.875,0.75 5.5625,-0.90625 1.71875,-0.28125 0.5,0.125 0.0625,-0.25 3.6875,-0.625 6,-1 4.40625,-4.15625 3.15625,-2.9375 -8.09375,-8.625 12.15625,-14.21875 -3.15625,-2.6875 -3.4375,-2.9375 -4.34375,-1.15625 -0.125,-0.0312 1.75,-1.28125 -2.59375,-3.5625 0.53125,-1.65625 0.75,-2.3125 4.53125,-1.21875 -1.34375,-5 -1.34375,-4.90625 -0.5,-0.53125 0.6875,-0.65625 -2.8436,-3.06235 0.5625,-3.3125 3.125,-2.34375 -4.0625,-5.34375 -3.28125,-4.40625 -0.15625,-0.0625 -0.5,-2.625 0.15625,-0.15625 2.4375,-2.40625 1.8125,-0.6875 4.875,-1.875 3.34375,-4.03125 3.125,-3.75 -4.40625,-3.65625 0.0312,-0.25 0.65625,-4.4375 -1.84375,-0.28125 -1.34375,-2 -3.84375,-5.78125 -3.34375,-1.09375 0.5,-11.3125 -4.0625,-0.1875 -4.15625,-0.1875 -3.90625,1.5 -3.75,1.4375 0.65625,-3.59375 0.3125,-1.75 0.53125,-0.875 -0.3125,-0.1875 0.0312,-0.21875 2.96875,-1.5 2.96875,-5.25 2.09375,-3.65625 -4.5625,-2.59375 0.28125,-1.21875 -4.0625,-0.90625 -3.40625,-1.96875 2.34375,-3.3125 -3.5,-2.46875 -0.4375,-0.3125 2.34375,-12.1875 -4.6875,-0.875 -6.71875,-1.3125 -5.9375,3 -1.15625,-1.4375 -3.21865,-4.03125 -3,-3.78125 -4.4375,-1.96875 -4.03125,-1.84375 -6.90625,15.34375 -9.25,-5.09375 -2.3125,4.25 -2.84375,5.15625 -3.28125,0.75 0.9375,4.09375 1,4.46875 0.9375,1.15625 -3.125,2.34375 -0.15625,-1.8125 -2.78125,0.25 -0.375,-1 -1.75,-4.65625 -3.6875,-3.3125 -3.90625,-3.46875 -5.6875,6.375 -3.90625,-3.21875 -3.46875,-2.84375 -2.96875,3.625 -3.3125,-1.5625 -0.8125,1.78125 -0.375,0 -6.96875,-9.9375 -3.96875,2.78125 -4.625,3.25 -1.6875,3.875 -4.8125,0 -9.1875,-4.0625 -2.03125,4.59375 -0.1875,0.4375 -1.21875,1.34375 -0.78125,0.0312 -4.125,0.25 0.28125,5.03125 -3.5625,0.78125 -0.6875,0.15625 -3.3125,-1.40625 -0.84375,0 -0.0937,-0.15625 -1.71875,-12.125 -4.34375,0.59375 -2.09375,0.28125 -0.0312,-0.0625 -1.25,-3.8125 -4.21875,1.375 0,-0.21875 0.3125,-4.40625 -4,-0.25 -0.90625,-3.21875 -1.90625,-6.65625 -5.625,-4.0625 -4.21885,-3.0312 z m 41.625,114.59375 -1.1875,1 0.25,-0.5 0.9375,-0.5 z m -54.1875,19.40625 -0.25,0.5 -0.9375,0.5 1.1875,-1 z"
       id="path4590"
       inkscape:connector-curvature="0" />
  </g>
</svg>
